<svg width="9" height="18" viewBox="0 0 9 18" fill="none" xmlns="http://www.w3.org/2000/svg">
<path d="M8.49171 0.0039447H5.82754C2.43442 -0.0300409 2.00104 2.07207 2.00104 4.34711V6.00141H0.503194C0.435494 5.99235 0.366621 5.99904 0.301924 6.02096C0.237226 6.04288 0.178447 6.07943 0.130151 6.12777C0.0818542 6.17612 0.0453412 6.23496 0.0234476 6.29972C0.00155395 6.36448 -0.00513104 6.43342 0.00391198 6.50119V9.49992C-0.00513104 9.56769 0.00155395 9.63663 0.0234476 9.7014C0.0453412 9.76616 0.0818542 9.825 0.130151 9.87335C0.178447 9.92169 0.237226 9.95824 0.301924 9.98016C0.366621 10.0021 0.435494 10.0088 0.503194 9.99971H2.00104V17.4965C1.99272 17.5644 2.00001 17.6333 2.02236 17.698C2.0447 17.7626 2.08151 17.8213 2.12998 17.8695C2.17844 17.9177 2.23727 17.9542 2.30197 17.9762C2.36668 17.9982 2.43555 18.0051 2.50332 17.9963H5.55394C5.84851 18.0303 6.08717 17.7914 5.9933 17.4965L5.9953 9.99971H8.49171C8.55941 10.0088 8.62829 10.0021 8.69298 9.98016C8.75768 9.95824 8.81646 9.92169 8.86476 9.87335C8.91305 9.825 8.94957 9.76616 8.97146 9.7014C8.99335 9.63663 9.00004 9.56769 8.991 9.49992V6.50119C9.00004 6.43342 8.99335 6.36448 8.97146 6.29972C8.94957 6.23496 8.91305 6.17612 8.86476 6.12777C8.81646 6.07943 8.75768 6.04288 8.69298 6.02096C8.62829 5.99904 8.55941 5.99235 8.49171 6.00141H5.99231L5.9953 4.50204C6.09216 3.86331 6.09216 3.96727 6.68431 4.00225H8.47074C8.60954 3.97126 8.75733 3.98826 8.86118 3.8873C8.96503 3.78634 9.02495 3.6484 8.99 3.50246V0.503733C8.99922 0.436019 8.99269 0.367089 8.97092 0.302316C8.94915 0.237543 8.91274 0.178676 8.86451 0.130304C8.81629 0.0819323 8.75755 0.045362 8.69289 0.0234443C8.62822 0.00152662 8.55938 -0.00514653 8.49171 0.0039447ZM7.95748 2.9467L6.70528 2.89872C5.15451 2.89872 5.0247 3.74136 5.0247 4.604L5.0207 6.49919C5.02057 6.56937 5.03427 6.63889 5.06101 6.70377C5.08774 6.76864 5.127 6.8276 5.17653 6.87728C5.22606 6.92695 5.28489 6.96635 5.34965 6.99324C5.41441 7.02013 5.48383 7.03397 5.55394 7.03397H7.99243V8.96515H5.55593C5.41442 8.96515 5.27869 9.02135 5.17853 9.12143C5.07837 9.2215 5.02196 9.35727 5.0217 9.49892L5.0207 16.9967H2.99961V9.49992C2.99961 9.20505 2.7989 8.96615 2.50332 8.96615H1.00248V7.03497H2.50332C2.57339 7.03507 2.64278 7.02136 2.70755 6.9946C2.77232 6.96784 2.83118 6.92857 2.88078 6.87903C2.98063 6.77808 2.99861 6.64213 2.99861 6.50019V4.34611C2.99861 2.10505 3.45096 1.03751 5.82654 1.03751H7.95648L7.95748 2.9467Z" fill="white"/>
</svg>
