<svg width="23" height="23" viewBox="0 0 23 23" fill="none" xmlns="http://www.w3.org/2000/svg">
<path d="M13.8583 13.8583C13.2332 14.4834 12.3854 14.8346 11.5013 14.8346C10.6172 14.8346 9.7694 14.4834 9.14428 13.8583C8.51916 13.2332 8.16797 12.3854 8.16797 11.5013C8.16797 10.6172 8.51916 9.7694 9.14428 9.14428C9.7694 8.51916 10.6172 8.16797 11.5013 8.16797C12.3854 8.16797 13.2332 8.51916 13.8583 9.14428C14.4834 9.7694 14.8346 10.6172 14.8346 11.5013C14.8346 12.3854 14.4834 13.2332 13.8583 13.8583Z" stroke="white" stroke-linecap="round" stroke-linejoin="round"/>
<path d="M3.375 15.3333V7.66667C3.375 6.52845 3.82716 5.43684 4.632 4.632C5.43684 3.82716 6.52845 3.375 7.66667 3.375H15.3333C16.4716 3.375 17.5632 3.82716 18.368 4.632C19.1728 5.43684 19.625 6.52845 19.625 7.66667V15.3333C19.625 16.4716 19.1728 17.5632 18.368 18.368C17.5632 19.1728 16.4716 19.625 15.3333 19.625H7.66667C6.52845 19.625 5.43684 19.1728 4.632 18.368C3.82716 17.5632 3.375 16.4716 3.375 15.3333Z" stroke="white"/>
<mask id="path-3-inside-1_462_2651" fill="white">
<path d="M16.7695 6.23952L16.7795 6.22852L16.7695 6.23952Z"/>
</mask>
<path d="M16.0296 5.56684C15.6581 5.9755 15.6882 6.60794 16.0969 6.97945C16.5055 7.35096 17.138 7.32085 17.5095 6.91219L16.0296 5.56684ZM17.5195 6.90119C17.891 6.49254 17.8609 5.86009 17.4522 5.48858C17.0436 5.11707 16.4111 5.14718 16.0396 5.55584L17.5195 6.90119ZM17.5095 6.91219L17.5195 6.90119L16.0396 5.55584L16.0296 5.56684L17.5095 6.91219Z" fill="white" mask="url(#path-3-inside-1_462_2651)"/>
</svg>
