<svg width="23" height="23" viewBox="0 0 23 23" fill="none" xmlns="http://www.w3.org/2000/svg">
<path d="M21.0311 2.64886C20.8245 2.47758 20.5753 2.36541 20.3101 2.32424C20.0449 2.28307 19.7735 2.31444 19.5246 2.41502L2.35416 9.34665C2.07669 9.46067 1.84047 9.65638 1.67684 9.90781C1.51322 10.1592 1.42993 10.4545 1.43804 10.7544C1.44615 11.0542 1.54527 11.3445 1.72225 11.5868C1.89922 11.829 2.14568 12.0116 2.42891 12.1105L6.13382 13.3966L8.14153 20.034C8.14536 20.0474 8.15782 20.056 8.16357 20.0685C8.18426 20.1214 8.21447 20.1702 8.2527 20.2122C8.31079 20.2771 8.38578 20.3246 8.46928 20.3493C8.47886 20.3531 8.48557 20.3617 8.49516 20.3636H8.50091L8.50378 20.3646C8.57792 20.3806 8.65496 20.3766 8.72707 20.3531C8.73474 20.3512 8.74241 20.3512 8.75103 20.3483C8.82027 20.324 8.88292 20.284 8.93407 20.2314C8.93982 20.2247 8.94941 20.2237 8.95516 20.218L11.8426 17.0306L16.0564 20.2937C16.3123 20.494 16.6276 20.6023 16.9524 20.6023C17.6559 20.6023 18.2625 20.1097 18.4072 19.4226L21.5333 4.07198C21.5863 3.81139 21.5676 3.54128 21.4792 3.29048C21.3907 3.03968 21.2359 2.81759 21.0311 2.6479V2.64886ZM9.18899 14.6568L8.51145 17.9506L7.09791 13.2758L14.1081 9.62456L9.31932 14.4143C9.25301 14.4806 9.20768 14.5649 9.18899 14.6568ZM17.468 19.2299C17.45 19.3168 17.41 19.3977 17.3518 19.4646C17.2935 19.5316 17.2191 19.5824 17.1355 19.6123C17.054 19.6437 16.9657 19.6533 16.8793 19.6402C16.7929 19.6271 16.7115 19.5917 16.6429 19.5376L12.0784 16.0023C11.9829 15.9286 11.8633 15.8936 11.7432 15.9043C11.6231 15.9149 11.5115 15.9705 11.4305 16.0598L9.42091 18.2745L10.0975 14.9903L16.9869 8.09986C17.0676 8.01891 17.1167 7.91179 17.1254 7.79783C17.134 7.68387 17.1016 7.57057 17.0341 7.47838C16.9665 7.38619 16.8682 7.32118 16.757 7.29508C16.6457 7.26899 16.5288 7.28352 16.4273 7.33606L6.49607 12.5091L2.74228 11.2039C2.64275 11.171 2.55595 11.108 2.49394 11.0234C2.43193 10.9389 2.39781 10.8372 2.39632 10.7324C2.39155 10.6267 2.4198 10.5221 2.47715 10.4331C2.53451 10.3442 2.61813 10.2753 2.71641 10.236L19.884 3.30436C19.972 3.26698 20.0686 3.25489 20.1631 3.26945C20.2576 3.28401 20.3461 3.32464 20.4187 3.38677C20.491 3.44522 20.5455 3.52259 20.5763 3.61025C20.6071 3.69791 20.613 3.79241 20.5932 3.88319L17.468 19.2309V19.2299Z" fill="white"/>
</svg>
