<svg width="1777" height="724" viewBox="0 0 1777 724" fill="none" xmlns="http://www.w3.org/2000/svg">
<g opacity="0.3" filter="url(#filter0_f_454_11361)">
<path d="M67.2838 527.342V438.616L335.904 77.2H474.284L211.362 438.616L147.056 419.894H595.57V527.342H67.2838ZM374.162 647V527.342L378.232 419.894V313.26H502.774V647H374.162ZM879.211 656.768C832.541 656.768 790.756 645.372 753.855 622.58C716.953 599.245 687.921 565.6 666.757 521.644C645.593 477.688 635.011 424.507 635.011 362.1C635.011 299.693 645.593 246.512 666.757 202.556C687.921 158.6 716.953 125.226 753.855 102.434C790.756 79.0993 832.541 67.432 879.211 67.432C926.423 67.432 968.208 79.0993 1004.57 102.434C1041.47 125.226 1070.5 158.6 1091.66 202.556C1112.83 246.512 1123.41 299.693 1123.41 362.1C1123.41 424.507 1112.83 477.688 1091.66 521.644C1070.5 565.6 1041.47 599.245 1004.57 622.58C968.208 645.372 926.423 656.768 879.211 656.768ZM879.211 545.25C901.46 545.25 920.725 539.009 937.005 526.528C953.827 514.047 966.851 494.239 976.077 467.106C985.845 439.973 990.729 404.971 990.729 362.1C990.729 319.229 985.845 284.227 976.077 257.094C966.851 229.961 953.827 210.153 937.005 197.672C920.725 185.191 901.46 178.95 879.211 178.95C857.504 178.95 838.239 185.191 821.417 197.672C805.137 210.153 792.113 229.961 782.345 257.094C773.119 284.227 768.507 319.229 768.507 362.1C768.507 404.971 773.119 439.973 782.345 467.106C792.113 494.239 805.137 514.047 821.417 526.528C838.239 539.009 857.504 545.25 879.211 545.25ZM1180.97 527.342V438.616L1449.59 77.2H1587.97L1325.05 438.616L1260.74 419.894H1709.26V527.342H1180.97ZM1487.85 647V527.342L1491.92 419.894V313.26H1616.46V647H1487.85Z" fill="#BEBEBE"/>
</g>
<defs>
<filter id="filter0_f_454_11361" x="0.283691" y="0.432129" width="1775.97" height="723.336" filterUnits="userSpaceOnUse" color-interpolation-filters="sRGB">
<feFlood flood-opacity="0" result="BackgroundImageFix"/>
<feBlend mode="normal" in="SourceGraphic" in2="BackgroundImageFix" result="shape"/>
<feGaussianBlur stdDeviation="33.5" result="effect1_foregroundBlur_454_11361"/>
</filter>
</defs>
</svg>
