<svg width="87" height="88" viewBox="0 0 87 88" fill="none" xmlns="http://www.w3.org/2000/svg">
<g id="Frame 9092">
<path id="Vector 9" d="M56.2852 44.4998L56.6294 44.1372L57.0113 44.4998L56.6294 44.8624L56.2852 44.4998ZM26.6037 44.9998H26.1037V43.9998H26.6037V44.9998ZM43.4637 31.6372L56.6294 44.1372L55.9409 44.8624L42.7752 32.3624L43.4637 31.6372ZM56.6294 44.8624L43.4637 57.3624L42.7752 56.6372L55.9409 44.1372L56.6294 44.8624ZM56.2852 44.9998H26.6037V43.9998H56.2852V44.9998Z" fill="white"/>
<path id="Ellipse 10" d="M5.07692 29.2174C8.67433 20.8249 15.0349 13.9157 23.1019 9.63781C31.1689 5.35992 40.4567 3.97083 49.4223 5.7013C58.388 7.43177 66.4917 12.1776 72.3871 19.1504C78.2826 26.1233 81.615 34.9033 81.8306 44.0318C82.0462 53.1604 79.1322 62.0879 73.5725 69.3313C68.0128 76.5747 60.1422 81.6979 51.2683 83.8498C42.3944 86.0017 33.0514 85.0527 24.7914 81.1604C16.5314 77.2682 9.85169 70.6671 5.86201 62.4537" stroke="white" stroke-width="3"/>
</g>
</svg>
