<svg width="39" height="38" viewBox="0 0 39 38" fill="none" xmlns="http://www.w3.org/2000/svg">
<path d="M19.7537 14.3711L19.5486 14.1715L19.7537 13.9608L19.9587 14.1715L19.7537 14.3711ZM20.0398 29.8243L20.0398 30.1105L19.4675 30.1105L19.4675 29.8243L20.0398 29.8243ZM14.1114 19.7567L19.5486 14.1715L19.9587 14.5707L14.5215 20.1559L14.1114 19.7567ZM19.9587 14.1715L25.396 19.7567L24.9859 20.1559L19.5486 14.5707L19.9587 14.1715ZM20.0398 14.3711L20.0398 29.8243L19.4675 29.8243L19.4675 14.3711L20.0398 14.3711Z" fill="white"/>
<path d="M12.7539 36.8189C8.92928 35.1796 5.7807 32.281 3.83122 28.6048C1.88174 24.9285 1.24872 20.696 2.03731 16.6103C2.8259 12.5245 4.98865 8.83158 8.16623 6.14494C11.3438 3.4583 15.345 1.93971 19.5049 1.84144C23.6649 1.74318 27.7333 3.07116 31.0342 5.60476C34.3351 8.13836 36.6698 11.7251 37.6504 15.769C38.6311 19.8129 38.1986 24.0707 36.4249 27.8348C34.6511 31.599 31.6429 34.643 27.9 36.4612" stroke="white" stroke-width="1.14469"/>
</svg>
