<svg width="216" height="226" viewBox="0 0 216 226" fill="none" xmlns="http://www.w3.org/2000/svg">
<path d="M125.007 112.985L125.35 112.621L125.736 112.985L125.35 113.349L125.007 112.985ZM35.0068 113.485H34.5068V112.485H35.0068V113.485ZM112.074 100.121L125.35 112.621L124.664 113.349L111.389 100.849L112.074 100.121ZM125.35 113.349L112.074 125.849L111.389 125.121L124.664 112.621L125.35 113.349ZM125.007 113.485H35.0068V112.485H125.007V113.485Z" fill="white"/>
<path d="M3.00582 68.7209C12.8653 45.7192 30.2978 26.7832 52.4071 15.0587C74.5165 3.33428 99.9717 -0.472835 124.544 4.26989C149.116 9.01261 171.326 22.0197 187.484 41.1301C203.642 60.2406 212.775 84.3041 213.366 109.323C213.957 134.342 205.97 158.809 190.733 178.662C175.495 198.514 153.924 212.555 129.603 218.453C105.282 224.35 79.6758 221.749 57.0375 211.082C34.3992 200.414 16.0921 182.323 5.15755 159.812" stroke="white" stroke-width="3"/>
</svg>
