<svg width="26" height="26" viewBox="0 0 26 26" fill="none" xmlns="http://www.w3.org/2000/svg">
<rect x="1" y="1" width="24" height="24" stroke="white" stroke-width="1.09091"/>
<path d="M20.8584 5.83198L20.8547 5.28654L21.4075 5.28288L21.4038 5.8356L20.8584 5.83198ZM16.0457 11.4161L15.66 11.8018L14.8886 11.0304L15.2743 10.6447L16.0457 11.4161ZM15.6563 5.32097L20.8547 5.28654L20.862 6.37743L15.6636 6.41185L15.6563 5.32097ZM21.4038 5.8356L21.3694 11.034L20.2785 11.0268L20.3129 5.82837L21.4038 5.8356ZM21.244 6.21768L16.0457 11.4161L15.2743 10.6447L20.4727 5.44629L21.244 6.21768Z" fill="white"/>
<path d="M5.83305 20.7823L5.83667 21.3277L5.28395 21.3314L5.28761 20.7787L5.83305 20.7823ZM10.8477 15.1912L11.2404 14.8126L11.9975 15.5981L11.6047 15.9766L10.8477 15.1912ZM11.0351 21.2933L5.83667 21.3277L5.82944 20.2368L11.0278 20.2024L11.0351 21.2933ZM5.28761 20.7787L5.32204 15.5803L6.41292 15.5875L6.3785 20.7859L5.28761 20.7787ZM5.45452 20.3896L10.8477 15.1912L11.6047 15.9766L6.21159 21.175L5.45452 20.3896Z" fill="white"/>
</svg>
