<svg width="23" height="23" viewBox="0 0 23 23" fill="none" xmlns="http://www.w3.org/2000/svg">
<path d="M13.8573 13.8573C13.2322 14.4825 12.3844 14.8337 11.5003 14.8337C10.6163 14.8337 9.76842 14.4825 9.1433 13.8573C8.51818 13.2322 8.16699 12.3844 8.16699 11.5003C8.16699 10.6163 8.51818 9.76842 9.1433 9.1433C9.76842 8.51818 10.6163 8.16699 11.5003 8.16699C12.3844 8.16699 13.2322 8.51818 13.8573 9.1433C14.4825 9.76842 14.8337 10.6163 14.8337 11.5003C14.8337 12.3844 14.4825 13.2322 13.8573 13.8573Z" stroke="white" stroke-linecap="round" stroke-linejoin="round"/>
<path d="M3.375 15.3333V7.66667C3.375 6.52845 3.82716 5.43684 4.632 4.632C5.43684 3.82716 6.52845 3.375 7.66667 3.375H15.3333C16.4716 3.375 17.5632 3.82716 18.368 4.632C19.1728 5.43684 19.625 6.52845 19.625 7.66667V15.3333C19.625 16.4716 19.1728 17.5632 18.368 18.368C17.5632 19.1728 16.4716 19.625 15.3333 19.625H7.66667C6.52845 19.625 5.43684 19.1728 4.632 18.368C3.82716 17.5632 3.375 16.4716 3.375 15.3333Z" stroke="white"/>
<mask id="path-3-inside-1_152_990" fill="white">
<path d="M16.7705 6.23952L16.7805 6.22852L16.7705 6.23952Z"/>
</mask>
<path d="M16.0306 5.56684C15.6591 5.9755 15.6892 6.60794 16.0978 6.97945C16.5065 7.35096 17.1389 7.32085 17.5104 6.91219L16.0306 5.56684ZM17.5204 6.90119C17.892 6.49254 17.8618 5.86009 17.4532 5.48858C17.0445 5.11707 16.4121 5.14718 16.0406 5.55584L17.5204 6.90119ZM17.5104 6.91219L17.5204 6.90119L16.0406 5.55584L16.0306 5.56684L17.5104 6.91219Z" fill="white" mask="url(#path-3-inside-1_152_990)"/>
</svg>
