<svg width="79" height="50" viewBox="0 0 79 50" fill="none" xmlns="http://www.w3.org/2000/svg">
<path d="M6.10343 48.8131V49.9953C4.51703 49.9953 2.93063 49.9953 1.34423 49.9953C1.08435 49.9953 0.82788 49.9681 0.584993 49.852C0.236234 49.6856 0.0510966 49.3798 0.0131633 48.9541C0.0029723 48.838 0.000707555 48.7197 0.000707555 48.6031C-0.000424782 47.79 0.000141698 46.9765 0.000141698 46.1634C0.000141698 45.9602 0.023354 45.7615 0.0986544 45.5746C0.225476 45.2587 0.453075 45.0883 0.734461 44.9971C0.908274 44.9411 1.08605 44.9156 1.26609 44.9156C2.87684 44.915 4.48759 44.915 6.09834 44.915L5.37647 46.0966C4.04655 46.0966 2.71718 46.0966 1.38725 46.0972C1.33573 46.0972 1.28251 46.1006 1.23212 46.1125C1.1455 46.1334 1.09681 46.2036 1.08888 46.3038C1.08775 46.3169 1.08775 46.3305 1.08775 46.3435C1.08775 47.0835 1.08718 47.8234 1.08832 48.564C1.08832 48.7186 1.16418 48.8057 1.29893 48.8131C1.33403 48.8148 1.36857 48.8142 1.40311 48.8142C2.96969 48.8137 4.53628 48.8137 6.10343 48.8131Z" fill="white"/>
<path d="M20.9152 44.9208C20.9152 46.6086 20.9152 48.2963 20.9152 49.9926C20.7375 49.9926 20.5648 49.9943 20.3921 49.9926C20.13 49.9897 19.8667 49.9926 19.6051 49.9801C19.1692 49.9592 18.808 49.7463 18.5237 49.3732C18.0668 48.7748 17.6179 48.1678 17.1655 47.5643C16.8603 47.1572 16.5523 46.753 16.2534 46.3402C16.1 46.1285 15.9103 46.0628 15.6748 46.1053C15.6748 47.3956 15.6748 48.6904 15.6748 49.9892C15.3215 49.9892 14.9767 49.9892 14.6279 49.9892C14.6279 48.2992 14.6279 46.6114 14.6279 44.9203C14.6443 44.9186 14.6579 44.9163 14.6715 44.9163C15.0622 44.9163 15.4534 44.9135 15.8441 44.9186C16.1362 44.9225 16.4165 44.9967 16.6542 45.1994C16.8003 45.324 16.9413 45.4632 17.0608 45.6201C17.8081 46.6007 18.5486 47.5875 19.2915 48.5721C19.3062 48.5913 19.3209 48.6106 19.3368 48.6292C19.4222 48.7317 19.5208 48.8065 19.6498 48.8076C19.7206 48.8087 19.7908 48.8076 19.8667 48.8076C19.8667 47.7556 19.8667 46.7037 19.8667 45.6495L20.9152 44.9208Z" fill="white"/>
<path d="M13.6459 48.3508C13.6453 48.6209 13.6182 48.887 13.5214 49.1372C13.3759 49.5143 13.1154 49.7402 12.7814 49.8664C12.547 49.9548 12.3052 49.991 12.0606 49.991C10.87 49.9932 9.67934 49.9944 8.48926 49.9904C8.16145 49.9893 7.84043 49.9344 7.54376 49.7589C7.19386 49.5522 7.00023 49.2153 6.93513 48.7771C6.91644 48.6514 6.90851 48.5218 6.90795 48.3944C6.90568 47.7473 6.90568 47.1001 6.90795 46.4524C6.90908 46.1586 6.96173 45.8772 7.09535 45.6224C7.27426 45.281 7.55225 45.101 7.87779 45.003C8.08728 44.9402 8.30129 44.9153 8.51813 44.9153C9.10411 44.9159 9.6901 44.9153 10.2766 44.9153C10.8728 44.9153 11.469 44.913 12.0657 44.9164C12.3856 44.9181 12.6982 44.9719 12.9886 45.1378C13.3249 45.3292 13.527 45.6428 13.6001 46.0612C13.6284 46.2248 13.6437 46.3947 13.6448 46.5617C13.6499 47.1584 13.6476 47.7546 13.6459 48.3508ZM12.5611 46.774H12.5606C12.5606 46.6925 12.5606 46.611 12.5606 46.5294C12.5606 46.3432 12.4824 46.2079 12.3256 46.1558C12.218 46.1195 12.1025 46.0986 11.9904 46.0974C11.4186 46.0918 10.8468 46.0946 10.275 46.0946C10.0122 46.0946 9.74898 46.0941 9.48628 46.0941L9.48741 46.0946H8.3245C8.13767 46.0946 7.98593 46.2458 7.98593 46.4332V47.6618H7.98763C7.98763 47.9052 7.98707 48.1487 7.98763 48.3921C7.9882 48.562 8.06406 48.6775 8.19881 48.7437C8.31374 48.7998 8.43547 48.8122 8.5572 48.8122C9.45344 48.8134 10.3503 48.8134 11.2465 48.8122V48.8134L12.1558 48.81C12.38 48.8094 12.5611 48.6271 12.5611 48.4035V46.774Z" fill="white"/>
<path d="M42.6547 49.9991C42.6241 49.9991 42.6077 49.9991 42.5919 49.9991C42.1429 49.9991 41.6939 49.9986 41.2449 50.0003C41.2076 50.0003 41.1821 49.9878 41.1561 49.9572C40.604 49.309 40.0509 48.6618 39.4989 48.0136C39.4689 47.9779 39.4383 47.9638 39.3953 47.9638C38.7538 47.9649 38.1129 47.9649 37.4714 47.9649L38.1203 46.9022C39.1411 46.9022 40.1619 46.9022 41.1832 46.9022C41.2155 46.9022 41.2478 46.9005 41.2795 46.8954C41.3718 46.8795 41.4216 46.8184 41.4233 46.7108C41.4261 46.5676 41.4256 46.4238 41.4233 46.2805C41.4222 46.1945 41.382 46.1345 41.3089 46.1158C41.2546 46.1016 41.1968 46.0954 41.1408 46.0954C39.7695 46.0943 38.3988 46.0948 37.0281 46.0948C37.006 46.0948 36.9834 46.0948 36.9579 46.0948C36.9579 46.2885 36.9579 46.4787 36.9579 46.6712C36.9579 46.7482 36.9579 47.8873 36.9579 47.9655C36.9568 47.9655 36.9557 47.9655 36.9545 47.9655C36.9545 48.6471 36.9545 49.3197 36.9545 49.9969C36.5927 49.9969 36.2361 49.9969 35.876 49.9969C35.876 48.3029 35.876 46.6123 35.876 44.9121C35.8975 44.9121 35.9173 44.9121 35.9371 44.9121C37.6855 44.9121 39.4338 44.9121 41.1821 44.9121C41.3972 44.9121 41.609 44.9359 41.8139 45.0146C42.1672 45.1505 42.3784 45.4279 42.443 45.8497C42.452 45.9074 42.4605 45.9663 42.4599 46.0246C42.456 46.3304 42.4673 46.6389 42.4384 46.9418C42.4022 47.324 42.2318 47.6184 41.9136 47.7775C41.7392 47.8647 41.5546 47.8975 41.3661 47.8992C41.194 47.9009 41.0219 47.8992 40.8311 47.8992C41.4431 48.6024 42.0438 49.2948 42.6547 49.9991Z" fill="white"/>
<path d="M28.4209 48.9709C28.3914 49.4453 28.1321 49.7771 27.7313 49.9079C27.5467 49.9679 27.3582 49.9968 27.1668 49.9968C25.5345 49.9985 23.9023 49.9979 22.27 49.9979C22.2576 49.9979 22.244 49.9962 22.2293 49.9951L22.9494 48.814C24.3246 48.814 25.6999 48.814 27.0751 48.8135C27.1289 48.8135 27.1832 48.8078 27.2359 48.7959C27.3174 48.7772 27.3553 48.7184 27.3559 48.6221C27.3565 48.4953 27.3565 48.3685 27.3559 48.2422C27.3553 48.1346 27.3202 48.0775 27.2285 48.0537C27.1798 48.0412 27.1289 48.0401 27.0785 48.0401C25.8618 48.0395 24.6445 48.0401 23.4273 48.039C23.1685 48.039 22.9121 48.0152 22.6658 47.9144C22.3504 47.7853 22.1455 47.5458 22.0911 47.1563C22.0826 47.0974 22.0787 47.0368 22.0787 46.9768C22.0792 46.6569 22.0747 46.3371 22.0849 46.0177C22.1019 45.4935 22.3685 45.1232 22.8107 44.9896C22.9811 44.9381 23.1549 44.9097 23.331 44.9097C24.9604 44.9092 26.5893 44.9092 28.2187 44.9092L27.4963 46.0919C26.1511 46.0919 24.8064 46.0919 23.4607 46.0925C23.4029 46.0925 23.344 46.0942 23.288 46.1066C23.1946 46.127 23.1589 46.1819 23.1578 46.2906C23.1566 46.4129 23.1566 46.5352 23.1578 46.6575C23.1583 46.7577 23.1895 46.8087 23.2755 46.833C23.3276 46.8477 23.3825 46.8534 23.4358 46.8534C24.653 46.8545 25.8697 46.8545 27.087 46.854C27.3236 46.854 27.558 46.876 27.7834 46.9632C28.1825 47.1178 28.4039 47.4422 28.4265 47.9218C28.4435 48.2711 28.4424 48.6227 28.4209 48.9709Z" fill="white"/>
<path d="M35.1859 44.9136L34.4675 46.0895C33.8707 46.0895 33.274 46.0895 32.6738 46.0895C32.6738 47.3945 32.6738 48.6916 32.6738 49.9944C32.3092 49.9944 31.9548 49.9944 31.5936 49.9944C31.5936 48.6944 31.5936 47.3974 31.5936 46.0929C30.7296 46.0929 29.8724 46.0929 29.0107 46.0929C29.0107 45.6971 29.0107 45.3082 29.0107 44.9136C31.0671 44.9136 33.1245 44.9136 35.1859 44.9136Z" fill="white"/>
<path d="M49.8963 44.9784C49.8963 46.2381 49.8968 47.4978 49.8963 48.7581C49.8963 48.9948 49.8634 49.224 49.7559 49.4318C49.6256 49.6838 49.4241 49.8253 49.1857 49.908C49.0017 49.9714 48.8126 49.9969 48.6213 49.9969C47.2868 49.9986 45.9518 49.9991 44.6173 49.9963C44.3467 49.9957 44.0806 49.9527 43.836 49.8055C43.575 49.6487 43.4221 49.399 43.3706 49.0684C43.3548 48.9676 43.3468 48.864 43.3468 48.7615C43.3463 48.3261 43.3468 47.8907 43.3463 47.4548H43.3457V44.9144H44.4197L44.4231 44.9121C44.4231 44.9132 44.4231 44.9138 44.4231 44.9144V45.7653C44.4231 46.1701 44.4231 46.5755 44.4231 46.9803V47.4542H44.4226C44.4226 47.8256 44.4226 48.197 44.4214 48.5684C44.4209 48.7575 44.499 48.7932 44.6213 48.8119C44.6507 48.8164 44.6807 48.8141 44.7107 48.8141C45.9835 48.8141 47.2568 48.8141 48.5295 48.8136C48.5777 48.8136 48.6269 48.8096 48.6739 48.7989C48.7741 48.7768 48.8087 48.7253 48.8087 48.6075C48.8087 47.4525 48.8087 46.2981 48.8087 45.1437C48.8087 45.0689 48.8087 44.9942 48.8087 44.9138C49.171 44.9138 49.53 44.9138 49.8929 44.9138C49.8946 44.9365 49.8963 44.958 49.8963 44.9784Z" fill="white"/>
<path d="M63.8783 44.9131L63.1599 46.089C62.5631 46.089 61.9664 46.089 61.3662 46.089C61.3662 47.394 61.3662 48.6911 61.3662 49.9939C61.0016 49.9939 60.6472 49.9939 60.286 49.9939C60.286 48.694 60.286 47.3969 60.286 46.0924C59.422 46.0924 58.5648 46.0924 57.7031 46.0924C57.7031 45.6967 57.7031 45.3077 57.7031 44.9131C59.7594 44.9131 61.8169 44.9131 63.8783 44.9131Z" fill="white"/>
<path d="M71.1547 48.3435C71.1541 48.6135 71.127 48.8796 71.0301 49.1299C70.8846 49.5069 70.6242 49.7329 70.2902 49.8591C70.0558 49.9474 69.814 49.9837 69.5694 49.9837C68.3788 49.9859 67.1881 49.9871 65.998 49.9831C65.6702 49.982 65.3492 49.927 65.0525 49.7515C64.7027 49.5449 64.509 49.208 64.4439 48.7698C64.4252 48.6441 64.4173 48.5145 64.4167 48.3871C64.4145 47.7399 64.4145 47.0928 64.4167 46.4451C64.4179 46.1513 64.4705 45.8699 64.6041 45.6151C64.783 45.2737 65.061 45.0937 65.3866 44.9957C65.5961 44.9329 65.8101 44.908 66.0269 44.908C66.6129 44.9085 67.1989 44.908 67.7854 44.908C68.3816 44.908 68.9778 44.9057 69.5745 44.9091C69.8944 44.9108 70.2069 44.9646 70.4974 45.1305C70.8337 45.3218 71.0358 45.6355 71.1088 46.0539C71.1371 46.2175 71.1524 46.3874 71.1536 46.5544C71.1581 47.1511 71.1558 47.7473 71.1547 48.3435ZM70.0699 46.7667H70.0694C70.0694 46.6852 70.0694 46.6036 70.0694 46.5221C70.0694 46.3358 69.9912 46.2005 69.8344 46.1484C69.7268 46.1122 69.6113 46.0913 69.4992 46.0901C68.9274 46.0845 68.3556 46.0873 67.7837 46.0873C67.521 46.0873 67.2578 46.0867 66.9951 46.0867L66.9962 46.0873H65.8333C65.6464 46.0873 65.4947 46.2385 65.4947 46.4259V47.6545H65.4964C65.4964 47.8979 65.4959 48.1414 65.4964 48.3848C65.497 48.5547 65.5728 48.6702 65.7076 48.7364C65.8225 48.7924 65.9443 48.8049 66.066 48.8049C66.9622 48.806 67.859 48.806 68.7553 48.8049V48.806L69.6645 48.8026C69.8887 48.8021 70.0699 48.6198 70.0699 48.3961V46.7667Z" fill="white"/>
<path d="M78.766 49.9903C78.7355 49.9903 78.719 49.9903 78.7032 49.9903C78.2542 49.9903 77.8052 49.9898 77.3563 49.9915C77.3189 49.9915 77.2934 49.979 77.2674 49.9484C76.7154 49.3002 76.1622 48.6531 75.6102 48.0048C75.5802 47.9691 75.5496 47.955 75.5066 47.955C74.8651 47.9561 74.2242 47.9561 73.5828 47.9561L74.2316 46.8934C75.2524 46.8934 76.2732 46.8934 77.2946 46.8934C77.3268 46.8934 77.3591 46.8917 77.3908 46.8866C77.4831 46.8708 77.5329 46.8096 77.5346 46.702C77.5374 46.5588 77.5369 46.415 77.5346 46.2718C77.5335 46.1857 77.4933 46.1257 77.4203 46.107C77.3659 46.0928 77.3082 46.0866 77.2521 46.0866C75.8808 46.0855 74.5101 46.086 73.1395 46.086C73.1174 46.086 73.0947 46.086 73.0693 46.086C73.0693 46.2797 73.0693 46.4699 73.0693 46.6624C73.0693 46.7394 73.0693 47.8785 73.0693 47.9567C73.0681 47.9567 73.067 47.9567 73.0659 47.9567C73.0659 48.6383 73.0659 49.3109 73.0659 49.9881C72.7041 49.9881 72.3474 49.9881 71.9873 49.9881C71.9873 48.2941 71.9873 46.6035 71.9873 44.9033C72.0088 44.9033 72.0286 44.9033 72.0484 44.9033C73.7968 44.9033 75.5451 44.9033 77.2934 44.9033C77.5086 44.9033 77.7203 44.9271 77.9253 45.0058C78.2786 45.1417 78.4897 45.4191 78.5543 45.8409C78.5633 45.8986 78.5718 45.9575 78.5713 46.0158C78.5673 46.3216 78.5786 46.6301 78.5498 46.933C78.5135 47.3152 78.3431 47.6096 78.0249 47.7687C77.8505 47.8559 77.666 47.8887 77.4774 47.8904C77.3053 47.8921 77.1332 47.8904 76.9424 47.8904C77.5544 48.5936 78.1551 49.286 78.766 49.9903Z" fill="white"/>
<path d="M78.5711 32.4502H0V39.6083H78.5711V32.4502Z" fill="white"/>
<path d="M78.5711 12.1709H0V19.329H78.5711V12.1709Z" fill="white"/>
<path d="M78.5711 0H0V7.15806H78.5711V0Z" fill="white"/>
<path d="M7.15806 12.5635H0V39.6076H7.15806V12.5635Z" fill="white"/>
<path d="M56.9999 48.8131V49.9953C55.4135 49.9953 53.8271 49.9953 52.2407 49.9953C51.9808 49.9953 51.7244 49.9681 51.4815 49.852C51.1327 49.6856 50.9476 49.3798 50.9096 48.9541C50.8995 48.838 50.8972 48.7197 50.8972 48.6031C50.8961 47.79 50.8966 46.9765 50.8966 46.1634C50.8966 45.9602 50.9198 45.7615 50.9951 45.5746C51.122 45.2587 51.3496 45.0883 51.6309 44.9971C51.8048 44.9411 51.9825 44.9156 52.1626 44.9156C53.7733 44.915 55.3841 44.915 56.9948 44.915L56.273 46.0966C54.943 46.0966 53.6137 46.0966 52.2837 46.0972C52.2322 46.0972 52.179 46.1006 52.1286 46.1125C52.042 46.1334 51.9933 46.2036 51.9854 46.3038C51.9842 46.3169 51.9842 46.3305 51.9842 46.3435C51.9842 47.0835 51.9837 47.8234 51.9848 48.564C51.9848 48.7186 52.0607 48.8057 52.1954 48.8131C52.2305 48.8148 52.2651 48.8142 52.2996 48.8142C53.8662 48.8137 55.4328 48.8137 56.9999 48.8131Z" fill="white"/>
</svg>
