<svg width="76" height="17" viewBox="0 0 76 17" fill="none" xmlns="http://www.w3.org/2000/svg">
<path d="M33.0836 9.04093L27.7187 3.61637H25.0362V12.6573H27.7187V7.23274L33.0836 12.6573H35.7661V3.61637H33.0836V9.04093Z" fill="white"/>
<path d="M73.3209 3.61637H63.4852V4.52046C64.1827 5.22565 64.5761 5.62345 65.2735 6.32865H67.956V12.6573H70.6385V6.32865H75.1093V5.42455C74.4118 4.71936 74.0184 4.32156 73.3209 3.61637Z" fill="white"/>
<path d="M11.6241 5.42455V12.6573H22.354C23.0514 11.9521 23.4448 11.5543 24.1423 10.8491V3.61637H13.4124C12.715 4.32156 12.3215 4.71936 11.6241 5.42455ZM14.3066 6.32865H21.4598V9.94502H14.3066V6.32865Z" fill="white"/>
<path d="M2.68247 6.32865H9.29922L11.9817 3.61637H1.78831C1.09087 4.32156 0.697442 4.71936 0 5.42455V10.8491C0.697442 11.5543 1.09087 11.9521 1.78831 12.6573H10.7299V9.94502H2.68247V6.32865Z" fill="white"/>
<path d="M52.7551 3.61637V12.6573H55.4376V10.8491H60.8026V12.6573H63.485V10.8491L62.5909 9.94502C62.8636 9.66927 63.1363 9.39352 63.485 9.04093V5.42455C62.7876 4.71936 62.3941 4.32156 61.6967 3.61637H52.7551ZM55.4376 8.13683V6.32865H60.8026V8.13683H55.4376Z" fill="white"/>
<path d="M38.449 14.6463V16.2737H40.2373L49.1789 7.23274V16.2737H51.8613V3.61637H49.1789L38.449 14.6463Z" fill="white"/>
<path d="M50.0727 1.62737V0H48.2844L39.3428 9.04094V0H36.6603V12.6573H39.3428L50.0727 1.62737Z" fill="white"/>
<path d="M75.109 10.8491H73.3207V12.6573H75.109V10.8491Z" fill="white"/>
</svg>
