<svg width="99" height="88" viewBox="0 0 99 88" fill="none" xmlns="http://www.w3.org/2000/svg">
<path d="M67.2852 44.4998L67.6294 44.1372L68.0113 44.4998L67.6294 44.8624L67.2852 44.4998ZM1 44.9998H0.5V43.9998H1V44.9998ZM54.4637 31.6372L67.6294 44.1372L66.9409 44.8624L53.7752 32.3624L54.4637 31.6372ZM67.6294 44.8624L54.4637 57.3624L53.7752 56.6372L66.9409 44.1372L67.6294 44.8624ZM67.2852 44.9998H1V43.9998H67.2852V44.9998Z" fill="white"/>
<path d="M16.0769 29.2174C19.6743 20.8249 26.0349 13.9157 34.1019 9.63781C42.1689 5.35992 51.4567 3.97083 60.4223 5.7013C69.388 7.43177 77.4917 12.1776 83.3871 19.1504C89.2826 26.1233 92.615 34.9033 92.8306 44.0318C93.0462 53.1604 90.1322 62.0879 84.5725 69.3313C79.0128 76.5747 71.1422 81.6979 62.2683 83.8498C53.3944 86.0017 44.0514 85.0527 35.7914 81.1604C27.5314 77.2682 20.8517 70.6671 16.862 62.4537" stroke="white" stroke-width="3"/>
</svg>
